Battlestar Galactica: Blood & Chrome (2012) Pilot


battlestar.galactica.blood.and.chrome.2012.bdrip.divx.ac3-atilla82





 
http://www.imdb.com/title/tt1704292/


The adventures of young William Adama in the First Cylon War.


subtitles: English (.srt)

source: Battlestar.Galactica.Blood.and.Chrome.2012.1080p.BluRay.x264-GECKOS



General
Complete name : battlestar.galactica.blood.and.chrome.2012.bdrip.divx.ac3-atilla82.avi
Format : AVI
Format/Info : Audio Video Interleave
File size : 1.15 GiB
Duration : 1h 33mn
Overall bit rate : 1 757 Kbps
Writing application : VirtualDubMod 1.5.10.2 (build 2540/release)
Writing library : VirtualDubMod build 2540/release

Video
ID : 0
Format : MPEG-4 Visual
Format settings, BVOP : 1
Format settings, QPel : No
Format settings, GMC : No warppoints
Format settings, Matrix : Default (H.263)
Muxing mode : Packed bitstream
Codec ID : DX50
Codec ID/Hint : DivX 5
Duration : 1h 33mn
Bit rate : 1 299 Kbps
Width : 720 pixels
Height : 406 pixels
Display aspect ratio : 16:9
Frame rate : 23.976 fps
Color space : YUV
Chroma subsampling : 4:2:0
Bit depth : 8 bits
Scan type : Progressive
Compression mode : Lossy
Bits/(Pixel*Frame) : 0.185
Stream size : 869 MiB (74%)
Writing library : DivX 2682

Audio
ID : 1
Format : AC-3
Format/Info : Audio Coding 3
Mode extension : CM (complete main)
Format settings, Endianness : Big
Codec ID : 2000
Duration : 1h 33mn
Bit rate mode : Constant
Bit rate : 448 Kbps
Channel(s) : 6 channels
Channel positions : Front: L C R, Side: L R, LFE
Sampling rate : 48.0 KHz
Bit depth : 16 bits
Compression mode : Lossy
Stream size : 300 MiB (26%)
Alignment : Split accross interleaves
Interleave, duration : 42 ms (1.00 video frame)
Interleave, preload duration : 500 ms


SCREENS 
http://www.pohrani.com/f/3p/CU/26CbnXCH/screenshots.jpg


